{"title":"Slipknot  (1999) - CD remaster by MC Lurken 24-bit 96kHz flac","uid":7403268,"size":1744301369,"categoryP":"audio","categoryS":"flac","magnet":"?xt=urn:btih:9112791f87031ea2d8767003b0283097e4ed381e&amp;dn=Slipknot++%281999%29+-+CD+remaster+by+MC+Lurken+24-bit+96kHz+flac&amp;tr=udp%3A%2F%2Ftracker.openbittorrent.com%3A80&amp;tr=udp%3A%2F%2Fopen.demonii.com%3A1337&amp;tr=udp%3A%2F%2Ftracker.coppersurfer.tk%3A6969&amp;tr=udp%3A%2F%2Fexodus.desync.com%3A6969","seeders":1,"leechers":2,"uploader":"beavis39","files":-1,"time":1341166809,"description":"Slipknot  (1999) - CD remaster by MC Lurken (a.k.a. Beavis39)\n\n\n\n!!!!!!!!!!!!!THIS IS NOT AN OFFICIAL REMASTER, THIS IS A FAN RELEASE!!!!!!!!!!!!!!\n!!!!!!!!!!!!!THIS IS NOT AN OFFICIAL REMASTER, THIS IS A FAN RELEASE!!!!!!!!!!!!!!\n!!!!!!!!!!!!!THIS IS NOT AN OFFICIAL REMASTER, THIS IS A FAN RELEASE!!!!!!!!!!!!!!\n\n\n\n1 - 742617000027\n2- (sic)\n3 - Eyeless\n4 - Wait and Bleed\n5 - Surfacing\n6 - Spit It Out\n7 - Tattered &amp; Torn\n8 - Frail Limb Nursery\n9 - Purity\n10 - Liberate\n11 - Prosthetics\n12 - No Life\n13 - Diluted\n14 - Only One\n15 - Scissors\n16 - Me Inside\n17 - Get This\n18 - Snap (Demo)\n19 - Interloper (Demo)\n20 - Despise (Demo)\n21 - Untitled\n22 - Eeyore\n\n\n\nfoobar2000 1.1.13 / Dynamic Range Meter 1.1.1\nlog date: 2012-07-01 09:24:38\n\n--------------------------------------------------------------------------------\nAnalyzed: ? / ?\n--------------------------------------------------------------------------------\n\nDR         Peak         RMS     Duration Track\n--------------------------------------------------------------------------------\nDR10      -2.95 dB   -15.99 dB      0:36 ?-01 - 742617000027\nDR6       -0.07 dB    -7.27 dB      3:20 ?-02 - (sic)\nDR6       -0.07 dB    -7.35 dB      3:56 ?-03 - Eyeless\nDR6       -0.07 dB    -7.46 dB      2:28 ?-04 - Wait and Bleed\nDR6       -0.07 dB    -7.71 dB      3:38 ?-05 - Surfacing\nDR6       -0.07 dB    -7.17 dB      2:40 ?-06 - Spit It Out\nDR5       -0.07 dB    -7.52 dB      2:54 ?-07 - Tattered &amp; Torn\nDR11      -1.22 dB   -14.65 dB      0:45 ?-08 - Frail Limb Nursery\nDR6       -0.07 dB    -7.72 dB      4:14 ?-09 - Purity\nDR6       -0.07 dB    -7.38 dB      3:07 ?-10 - Liberate\nDR6       -0.07 dB    -7.92 dB      4:58 ?-11 - Prosthetics\nDR7       -0.07 dB    -7.86 dB      2:47 ?-12 - No Life\nDR6       -0.07 dB    -7.18 dB      3:23 ?-13 - Diluted\nDR6       -0.07 dB    -7.86 dB      2:26 ?-14 - Only One\nDR6       -0.07 dB    -8.88 dB      8:23 ?-15 - Scissors\nDR6       -0.07 dB    -7.91 dB      2:39 ?-16 - Me Inside\nDR7       -0.07 dB    -7.88 dB      2:03 ?-17 - Get This\nDR6       -0.07 dB    -6.98 dB      2:42 ?-18 - Snap (Demo)\nDR7       -0.50 dB    -8.64 dB      2:18 ?-19 - Interloper (Demo)\nDR7       -0.07 dB    -8.07 dB      3:41 ?-20 - Despise (Demo)\nDR10      -1.24 dB   -17.58 dB      3:07 ?-21 - Untitled\nDR6       -0.07 dB    -7.96 dB      2:48 ?-22 - Eeyore\n--------------------------------------------------------------------------------\n\nNumber of tracks:  22\nOfficial DR value: DR7\n\nSamplerate:        96000 Hz\nChannels:          2\nBits per sample:   24\nBitrate:           4608 kbps\nCodec:             PCM\n\n\n\nenjoy :)","torrent":{"xt":"urn:btih:9112791f87031ea2d8767003b0283097e4ed381e","amp;dn":"Slipknot++%281999%29+-+CD+remaster+by+MC+Lurken+24-bit+96kHz+flac","amp;tr":["udp%3A%2F%2Ftracker.openbittorrent.com%3A80","udp%3A%2F%2Fopen.demonii.com%3A1337","udp%3A%2F%2Ftracker.coppersurfer.tk%3A6969","udp%3A%2F%2Fexodus.desync.com%3A6969"],"infoHash":"9112791f87031ea2d8767003b0283097e4ed381e","infoHashBuffer":{"type":"Buffer","data":[145,18,121,31,135,3,30,162,216,118,112,3,176,40,48,151,228,237,56,30]},"announce":[],"urlList":[]}}